<?xml version="1.0" standalone="no"?>
<!DOCTYPE svg PUBLIC "-//W3C//DTD SVG 20010904//EN"
 "http://www.w3.org/TR/2001/REC-SVG-20010904/DTD/svg10.dtd">
<svg version="1.0" xmlns="http://www.w3.org/2000/svg"
 width="436.000000pt" height="62.000000pt" viewBox="0 0 436.000000 62.000000"
 preserveAspectRatio="xMidYMid meet">

<g transform="translate(0.000000,62.000000) scale(0.100000,-0.100000)"
fill="#000000" stroke="none">
<path d="M587 564 c-11 -11 -8 -52 4 -59 5 -4 21 -4 35 -1 20 5 25 12 22 34
-2 20 -9 28 -28 30 -14 2 -29 0 -33 -4z"/>
<path d="M250 544 c-83 -36 -125 -117 -124 -236 2 -81 38 -165 86 -200 33 -23
125 -36 173 -24 l26 7 -3 112 -3 112 -50 0 c-44 0 -50 -3 -53 -22 -3 -19 1
-23 22 -23 26 0 26 -1 26 -76 l0 -77 -36 6 c-83 14 -124 76 -124 192 0 81 22
140 66 174 23 19 38 22 74 18 25 -2 53 -8 63 -12 13 -6 17 -2 17 18 0 44 -90
61 -160 31z"/>
<path d="M1220 325 l0 -235 25 0 c25 0 25 0 25 100 l0 99 38 41 c28 29 47 40
68 40 50 0 54 -13 54 -152 l0 -128 30 0 30 0 0 124 c0 147 -9 178 -56 201 -46
21 -85 12 -129 -30 l-35 -32 0 103 0 104 -25 0 -25 0 0 -235z"/>
<path d="M1930 325 l0 -235 53 -2 c124 -4 167 13 205 81 90 160 -28 327 -157
223 l-41 -33 0 101 0 100 -30 0 -30 0 0 -235z m215 15 c53 -103 -41 -242 -139
-204 -13 5 -16 22 -16 81 0 74 1 76 39 114 50 50 93 54 116 9z"/>
<path d="M4006 513 c-18 -65 -87 -416 -82 -420 11 -11 15 2 36 102 11 54 25
104 31 111 6 7 8 18 5 23 -4 5 3 50 14 100 23 105 23 101 11 101 -5 0 -12 -8
-15 -17z"/>
<path d="M920 455 l0 -65 -40 0 c-36 0 -40 -2 -40 -25 0 -22 4 -25 40 -25 l40
0 0 -84 c0 -102 9 -130 52 -156 58 -35 158 -19 158 26 0 21 -3 23 -26 14 -38
-15 -91 -12 -108 6 -12 12 -16 37 -16 105 l0 89 70 0 c68 0 70 1 70 25 0 24
-2 25 -70 25 l-70 0 0 65 0 65 -30 0 -30 0 0 -65z"/>
<path d="M2564 509 c-49 -14 -94 -71 -94 -119 0 -52 23 -74 91 -90 59 -14 110
-36 121 -54 4 -6 8 -24 8 -39 0 -69 -50 -101 -151 -95 -55 3 -73 8 -93 28 -28
26 -48 21 -25 -6 59 -72 244 -52 283 30 36 76 7 117 -104 147 -89 25 -110 41
-110 84 0 86 120 133 215 85 47 -24 46 -24 39 -6 -14 38 -109 56 -180 35z"/>
<path d="M500 395 c0 -23 4 -25 45 -25 l45 0 0 -140 0 -140 70 0 c68 0 70 1
70 25 0 23 -4 25 -45 25 l-45 0 0 140 0 140 -70 0 c-68 0 -70 -1 -70 -25z"/>
<path d="M1570 303 c0 -144 11 -188 50 -208 51 -26 88 -17 143 33 l27 26 0
-32 c0 -29 3 -32 30 -32 l30 0 -2 163 -3 162 -27 3 -28 3 0 -102 0 -102 -44
-43 c-46 -46 -74 -54 -100 -28 -13 12 -16 41 -16 145 l0 129 -30 0 -30 0 0
-117z"/>
<path d="M2885 392 c-22 -11 -50 -30 -62 -43 -47 -51 -67 -143 -42 -192 36
-70 91 -90 160 -59 47 20 87 58 75 69 -3 4 -13 -2 -21 -14 -18 -25 -74 -53
-109 -53 -41 0 -86 48 -93 97 l-6 43 87 0 c99 0 150 17 167 54 36 78 -65 141
-156 98z m120 -27 c14 -13 25 -31 25 -40 0 -9 -11 -27 -25 -40 -22 -23 -32
-25 -115 -25 -49 0 -90 2 -90 5 0 14 30 62 52 82 51 48 116 56 153 18z"/>
<path d="M3210 399 c-14 -6 -42 -27 -63 -47 -84 -82 -79 -221 10 -258 42 -18
79 -12 128 21 l35 24 0 -25 c0 -16 5 -24 13 -21 6 2 11 11 9 19 -1 9 11 76 27
149 16 74 28 136 26 138 -8 8 -25 -12 -25 -30 0 -22 -16 -25 -27 -5 -11 19
-63 46 -88 45 -11 0 -31 -5 -45 -10z m97 -29 c40 -24 50 -58 35 -129 -15 -71
-35 -99 -87 -122 -54 -24 -86 -18 -120 23 -54 64 -17 190 68 229 53 24 65 23
104 -1z"/>
<path d="M3740 395 c-76 -34 -122 -100 -123 -175 -1 -95 66 -153 150 -131 40
11 100 57 89 68 -3 3 -14 -1 -24 -10 -10 -9 -35 -23 -56 -32 -148 -62 -192
178 -46 253 54 28 95 23 127 -13 27 -30 33 -31 33 -5 0 44 -91 71 -150 45z"/>
<path d="M4081 399 c-35 -14 -81 -49 -81 -61 0 -6 8 -4 18 5 20 19 84 47 106
47 49 0 58 -71 27 -214 -13 -60 -16 -86 -8 -83 17 5 59 215 52 254 -10 53 -57
75 -114 52z"/>
<path d="M3490 393 c0 -4 -14 -72 -31 -151 -27 -126 -31 -167 -15 -151 3 3 15
50 27 104 11 55 24 104 27 110 10 17 12 95 2 95 -6 0 -10 -3 -10 -7z"/>
<path d="M3547 375 c-20 -14 -37 -30 -37 -36 0 -5 17 2 37 16 21 14 45 25 55
25 9 0 20 5 23 10 12 20 -41 9 -78 -15z"/>
</g>
</svg>
